<svg xmlns="http://www.w3.org/2000/svg" viewBox="0 0 960 560" role="img" aria-label="Abstract market chart illustration">
  <defs>
    <linearGradient id="bg" x1="0" x2="1" y1="0" y2="1">
      <stop offset="0" stop-color="#fff7e6"/>
      <stop offset="0.55" stop-color="#eef7f6"/>
      <stop offset="1" stop-color="#f7f4ee"/>
    </linearGradient>
    <linearGradient id="line" x1="0" x2="1" y1="0" y2="0">
      <stop offset="0" stop-color="#0b0f1a"/>
      <stop offset="0.55" stop-color="#3ab5a2"/>
      <stop offset="1" stop-color="#f0b429"/>
    </linearGradient>
    <filter id="shadow" x="-30%" y="-30%" width="160%" height="160%">
      <feDropShadow dx="0" dy="18" stdDeviation="22" flood-color="rgba(11, 15, 26, 0.18)"/>
    </filter>
  </defs>

  <rect width="960" height="560" rx="28" fill="url(#bg)"/>

  <g opacity="0.9">
    <path d="M70 470H890" stroke="#d9d2c7" stroke-width="2"/>
    <path d="M70 110H890" stroke="#d9d2c7" stroke-width="2" opacity="0.7"/>
    <path d="M70 290H890" stroke="#d9d2c7" stroke-width="2" opacity="0.85"/>
  </g>

  <g filter="url(#shadow)">
    <rect x="80" y="80" width="800" height="410" rx="24" fill="rgba(255,255,255,0.72)" stroke="#d9d2c7"/>
  </g>

  <g transform="translate(120 130)">
    <g opacity="0.85">
      <rect x="0" y="240" width="44" height="140" rx="12" fill="#12182a"/>
      <rect x="64" y="210" width="44" height="170" rx="12" fill="#12182a" opacity="0.8"/>
      <rect x="128" y="190" width="44" height="190" rx="12" fill="#12182a" opacity="0.7"/>
      <rect x="192" y="160" width="44" height="220" rx="12" fill="#12182a" opacity="0.6"/>
      <rect x="256" y="210" width="44" height="170" rx="12" fill="#12182a" opacity="0.5"/>
      <rect x="320" y="140" width="44" height="240" rx="12" fill="#12182a" opacity="0.45"/>
    </g>

    <path
      d="M0 220 C 70 180, 140 240, 210 190 S 350 120, 420 160 S 560 120, 640 90 S 740 110, 820 40"
      fill="none"
      stroke="url(#line)"
      stroke-width="10"
      stroke-linecap="round"
      stroke-linejoin="round"
    />

    <g fill="#0b0f1a" opacity="0.9">
      <circle cx="0" cy="220" r="8"/>
      <circle cx="210" cy="190" r="8"/>
      <circle cx="420" cy="160" r="8"/>
      <circle cx="640" cy="90" r="8"/>
      <circle cx="820" cy="40" r="8"/>
    </g>

    <g transform="translate(680 10)">
      <path d="M0 70 L52 18 L52 46 L120 46 L120 94 L52 94 L52 122 Z" fill="#0b0f1a" opacity="0.08"/>
      <path d="M6 70 L52 24 L52 52 L114 52 L114 88 L52 88 L52 116 Z" fill="#0b0f1a" opacity="0.12"/>
    </g>

    <g transform="translate(10 10)" opacity="0.7">
      <rect x="0" y="0" width="260" height="18" rx="9" fill="#d9d2c7"/>
      <rect x="0" y="32" width="200" height="12" rx="6" fill="#d9d2c7"/>
      <rect x="0" y="56" width="168" height="12" rx="6" fill="#d9d2c7"/>
    </g>
  </g>
</svg>

