<svg xmlns="http://www.w3.org/2000/svg" width="256" height="256" viewBox="0 0 256 256" role="img" aria-label="Quantura icon">
  <defs>
    <linearGradient id="shield" x1="0.1" x2="0.9" y1="0" y2="1">
      <stop offset="0%" stop-color="#24a3ff" />
      <stop offset="55%" stop-color="#2ac083" />
      <stop offset="100%" stop-color="#0b1633" />
    </linearGradient>
    <linearGradient id="arrow" x1="0" x2="1" y1="0" y2="1">
      <stop offset="0%" stop-color="#ffffff" stop-opacity="0.95" />
      <stop offset="100%" stop-color="#ffffff" stop-opacity="0.88" />
    </linearGradient>
  </defs>

  <rect width="256" height="256" rx="56" fill="rgba(255,255,255,0)" />

  <path
    d="M128 18
       C92 18 62 30 62 74
       V140
       C62 190 95 225 128 238
       C161 225 194 190 194 140
       V74
       C194 30 164 18 128 18Z"
    fill="url(#shield)"
  />

  <g opacity="0.95">
    <rect x="84" y="112" width="22" height="54" rx="6" fill="#ffffff" opacity="0.78" />
    <rect x="116" y="98" width="22" height="68" rx="6" fill="#ffffff" opacity="0.9" />
    <rect x="148" y="84" width="22" height="82" rx="6" fill="#ffffff" opacity="0.7" />
  </g>

  <path
    d="M76 168
       C96 148 114 134 132 120
       C150 106 166 92 188 64"
    fill="none"
    stroke="url(#arrow)"
    stroke-width="16"
    stroke-linecap="round"
  />
  <path d="M188 64 L216 56 L206 86 Z" fill="#ffffff" opacity="0.92" />
</svg>
