<svg xmlns="http://www.w3.org/2000/svg" width="900" height="240" viewBox="0 0 900 240" role="img" aria-label="Quantura logo (dark)">
  <defs>
    <linearGradient id="shield" x1="0.1" x2="0.9" y1="0" y2="1">
      <stop offset="0%" stop-color="#24a3ff" />
      <stop offset="55%" stop-color="#2ac083" />
      <stop offset="100%" stop-color="#0b1633" />
    </linearGradient>
    <linearGradient id="arrow" x1="0" x2="1" y1="0" y2="1">
      <stop offset="0%" stop-color="#ffffff" stop-opacity="0.95" />
      <stop offset="100%" stop-color="#ffffff" stop-opacity="0.88" />
    </linearGradient>
  </defs>

  <g transform="translate(34 20)">
    <path
      d="M100 6
         C72 6 48 14 48 48
         V108
         C48 146 72 174 100 186
         C128 174 152 146 152 108
         V48
         C152 14 128 6 100 6Z"
      fill="url(#shield)"
    />

    <g opacity="0.95">
      <rect x="68" y="88" width="16" height="46" rx="5" fill="#ffffff" opacity="0.78" />
      <rect x="92" y="76" width="16" height="58" rx="5" fill="#ffffff" opacity="0.9" />
      <rect x="116" y="64" width="16" height="70" rx="5" fill="#ffffff" opacity="0.7" />
    </g>

    <path
      d="M58 138
         C72 124 84 114 96 104
         C108 94 120 84 138 62"
      fill="none"
      stroke="url(#arrow)"
      stroke-width="12"
      stroke-linecap="round"
    />
    <path d="M138 62 L158 56 L151 78 Z" fill="#ffffff" opacity="0.92" />
  </g>

  <text
    x="240"
    y="146"
    font-family="Manrope, Avenir Next, Arial, sans-serif"
    font-size="84"
    font-weight="750"
    letter-spacing="-0.02em"
    fill="#e9edf7"
  >
    Quantura
  </text>
</svg>

